<svg id="svg5174" width="414.21mm" height="349.32mm" version="1.1" viewBox="0 0 414.21 349.32" xmlns="http://www.w3.org/2000/svg">
 <g id="layer1" transform="translate(52.889 154.25)">
  <path id="outline" d="m311.53-103.19c-0.0181-0.761 0.17392-1.5259 0.54918-2.1882 0.37525-0.66229 0.93275-1.2201 1.5948-1.5957 0.66208-0.37562 1.4269-0.56802 2.1879-0.55039 0.761 0.0176 1.5161 0.24524 2.1601 0.65113 0.60511 0.38139 1.1057 0.91189 1.5216 1.4938 0.41587 0.58196 0.75132 1.2168 1.0752 1.8546 4.4384 8.7379 6.9198 18.313 9.4134 27.791 0.86933 3.3043 1.7485 6.6342 1.9477 10.045 0.28029 4.8-0.79549 9.592-0.64913 14.398 0.0397 1.3022 0.16905 2.6025 0.14118 3.9049-0.0279 1.3025-0.22075 2.6247-0.79044 3.7963-0.47012 0.96683-1.1927 1.8096-2.0764 2.4218-0.88372 0.61222-1.9266 0.99253-2.997 1.0929s-2.1658-0.07941-3.1479-0.51665c-0.98214-0.43724-1.8488-1.131-2.4904-1.9935m-15.897-36.046s-2.931 1.7313-3.5881 3.2194c-1.4536 3.2913-2.4496 8.2624 0 10.85 1.8378 1.9414 5.4601-0.84767 7.889 0.19382 1.9219 0.82407 3.4971 2.5796 4.508 4.4562 0.59049 1.0962-0.15695 2.848 0.75136 3.6814 1.0334 0.94816 4.1322 0.38741 4.1322 0.38741m-11.549-36.937s-2.5785 3.3051-3.0004 5.3058c-0.61047 2.8948 0.85725 8.8431 0.85725 8.8431s2.7096-2.4748 4.2864-2.2108c1.3962 0.23372 2.1199 1.9534 3.0004 3.0951 0.83918 1.0882 2.1433 3.5373 2.1433 3.5373s0.71294 2.0325 0.85738 3.0951c0.0593 0.43785 0 1.3264 0 1.3264v0.44216l2.143 2.2107m30.895 176.03c3.6708 3.9902 6.6207 8.6416 8.6653 13.663 3.2803 8.0564 4.1898 16.929 3.7259 25.615s-2.2574 17.243-4.2211 25.717c-1.6144 6.9668-3.3478 13.906-5.1992 20.814m-52.363-105.73c2.2144 1.8049 4.4427 3.5927 6.6847 5.3631 3.4604 2.7326 6.9655 5.4321 10.77 7.6615 9.5562 5.6004 20.922 8.0544 31.938 6.8954m-43.822-217.97c-0.11567-2.2962 0.62277-4.6256 2.0402-6.4358 1.4174-1.8102 3.5018-3.0858 5.7586-3.5242 2.3562-0.4577 4.8788 4e-3 6.9198 1.2676 2.041 1.2632 3.5798 3.3148 4.2212 5.6278 5.8922 9.5054 10.41 19.861 13.369 30.646 1.1011 4.0126 1.9905 8.1044 2.2282 12.258 0.30695 5.3639-0.47607 10.723-0.74277 16.089-0.18331 3.6881-0.12321 7.3941-0.56898 11.06-0.44578 3.6656-1.4323 7.3441-3.516 10.393-2.6968 3.9455-7.1569 6.5741-11.884 7.2785-1.2305 0.18337-2.4936 0.24301-3.7137 0-1.5305-0.30482-2.934-1.0742-4.1962-1.9919-1.2622-0.91777-2.4041-1.9884-3.6025-2.9881-2.0308-1.6942-4.229-3.1876-6.5521-4.4516m-8.3026-119.67c3.5142 5.7764 6.0377 12.154 7.4274 18.771 1.214 5.7806 1.5644 11.715 1.4854 17.622-0.0359 2.6846-0.15979 5.3681-0.37137 8.0446m-306.68 5.8857c0.018058-0.761-0.17391-1.5259-0.54917-2.1882s-0.93276-1.2201-1.5948-1.5957c-0.66208-0.37563-1.4269-0.56803-2.1879-0.5504-0.76101 0.0176-1.5161 0.24525-2.1601 0.65114-0.6051 0.38139-1.1057 0.91189-1.5216 1.4938-0.41586 0.58196-0.75131 1.2168-1.0752 1.8546-4.4384 8.738-6.9198 18.313-9.4134 27.791-0.86934 3.3043-1.7485 6.6342-1.9477 10.045-0.28029 4.8 0.7955 9.592 0.64913 14.398-0.03966 1.3022-0.16905 2.6025-0.14118 3.9049 0.02787 1.3025 0.22075 2.6247 0.79044 3.7963 0.47012 0.96684 1.1927 1.8096 2.0764 2.4218 0.88373 0.61222 1.9266 0.99253 2.997 1.0929 1.0704 0.10038 2.1658-0.07941 3.1479-0.51666 0.98214-0.43724 1.8488-1.131 2.4904-1.9935m15.897-36.046s2.931 1.7313 3.5881 3.2194c1.4536 3.2913 2.4496 8.2624 0 10.85-1.8377 1.9414-5.4601-0.84767-7.8889 0.19382-1.9219 0.82407-3.4971 2.5796-4.5079 4.4562-0.59038 1.0962 0.15694 2.848-0.75136 3.6814-1.0334 0.94816-4.1323 0.38741-4.1323 0.38741m11.549-36.937s2.5785 3.3051 3.0004 5.3058c0.61047 2.8948-0.85726 8.8431-0.85726 8.8431s-2.7096-2.4748-4.2864-2.2108c-1.3962 0.23372-2.1199 1.9534-3.0004 3.0951-0.83919 1.0882-2.1433 3.5373-2.1433 3.5373s-0.71295 2.0325-0.85726 3.0951c-0.05939 0.43785 0 1.3264 0 1.3264v0.44216l-2.1431 2.2107m-30.895 176.03c-3.6708 3.9902-6.6207 8.6416-8.6653 13.663-3.2803 8.0564-4.1898 16.929-3.7259 25.615s2.2574 17.243 4.2211 25.717c1.6144 6.9668 3.3478 13.906 5.1991 20.814m52.363-105.73c-2.2144 1.8049-4.4427 3.5927-6.6847 5.3631-3.4604 2.7326-6.9655 5.4321-10.77 7.6615-9.5562 5.6004-20.922 8.0544-31.938 6.8954m43.822-217.97c0.11567-2.2962-0.62278-4.6256-2.0402-6.4358-1.4174-1.8102-3.5018-3.0858-5.7587-3.5242-2.3562-0.4577-4.8788 4e-3 -6.9198 1.2676-2.041 1.2632-3.5798 3.3148-4.2212 5.6278-5.8922 9.5054-10.41 19.861-13.369 30.646-1.1011 4.0126-1.9905 8.1044-2.2282 12.258-0.30695 5.3639 0.47607 10.723 0.74277 16.089 0.18331 3.6881 0.12321 7.3941 0.56899 11.06 0.44578 3.6656 1.4323 7.3441 3.516 10.393 2.6968 3.9455 7.1569 6.5741 11.884 7.2785 1.2305 0.18337 2.4936 0.243 3.7137 0 1.5305-0.30482 2.934-1.0742 4.1962-1.9919 1.2622-0.91777 2.4041-1.9884 3.6025-2.9881 2.0309-1.6942 4.229-3.1876 6.5521-4.4516m8.3025-119.67c-3.5142 5.7764-6.0377 12.154-7.4273 18.771-1.214 5.7806-1.5644 11.715-1.4854 17.622 0.03591 2.6846 0.15979 5.3681 0.37138 8.0446" fill="none" stroke="#000" stroke-width="2.8235"/>
  <g fill="#fff" stroke="#000" stroke-width="2.5668">
   <path id="1A_ipsi" d="m154.21 5.019v-118.24c-17.567 0.67846-27.91 6.4984-38.952 13.258l11.886 105.53z"/>
   <path id="1B_ipsi" d="m115.26-99.967c-14.75 7.2709-26.924 17.412-38.06 28.269-11.674 11.381-22.207 23.547-33.373 34.018l65.276 39.415 18.044 3.832z"/>
   <path id="6_ipsi" d="m127.15 5.5665-10.614 90.873-15.921 71.713-14.86 22.992h68.991l-0.53075-186.13c-9.0248 0.0756-18.045 0.25745-27.066 0.54747z"/>
  </g>
  <path id="2A_ipsi" d="m30.749-37.68 7.677 51.923 70.679-12.508-65.276-39.415z" fill="none" stroke="#000" stroke-width="2.5668"/>
  <path id="2B_ipsi" d="m30.749-37.68c-9.7408-5.9593-17.557-4.5275-25.661 3.8319l5.3071 49.269 28.031-1.1774z" fill="none" stroke="#000" stroke-width="2.5668"/>
  <g fill="#fff" stroke="#000" stroke-width="2.5668">
   <path id="3_ipsi" d="m38.426 14.243 8.5393 75.157 69.569 7.0395 10.614-90.873-18.044-3.832z"/>
   <path id="4_ipsi" d="m46.965 89.4 6.947 85.322 31.842 16.423 14.86-22.992 15.921-71.713z"/>
   <path id="5A_ipsi" d="m46.965 89.4-34.978 9.2292-1.5921-83.209 28.031-1.1774c1.5726 0.81104 5.5733 42.493 7.4876 63.425 0.64396 7.0403 1.0517 11.733 1.0517 11.733"/>
   <path id="5B_ipsi" d="m11.987 98.629-5.3071 36.13 47.232 39.962-6.947-85.322z"/>
  </g>
  <g>
   <g id="1A_ipsi_label" transform="matrix(.33434 0 0 .34488 -2720.3 -1213.7)" stroke-linejoin="round" aria-label="1A">
    <path id="path6000" d="m8527.5 3365.2v-21.328q-5.9532 4.5703-8.0157 4.5703-0.9843 0-1.7578-0.7735-0.75-0.7968-0.75-1.8281 0-1.1953 0.75-1.7578t2.6485-1.4531q2.8359-1.336 4.5234-2.8125 1.7109-1.4766 3.0234-3.3047t1.711-2.25q0.3984-0.4219 1.5-0.4219 1.2422 0 1.9922 0.961 0.75 0.9609 0.75 2.6484v26.836q0 4.711-3.211 4.711-1.4297 0-2.2969-0.961-0.8671-0.9609-0.8671-2.8359z"/>
    <path id="path6002" d="m8568.2 3364.5-1.6406-4.3125h-13.969l-1.6406 4.4063q-0.9609 2.5781-1.6406 3.4921-0.6797 0.8907-2.2266 0.8907-1.3125 0-2.3203-0.961-1.0078-0.9609-1.0078-2.1797 0-0.7031 0.2344-1.4531 0.2343-0.75 0.7734-2.0859l8.7891-22.312q0.375-0.961 0.8906-2.2969 0.539-1.3594 1.125-2.25 0.6094-0.8906 1.5703-1.4297 0.9844-0.5625 2.4141-0.5625 1.4531 0 2.414 0.5625 0.9844 0.5391 1.5703 1.4063 0.6094 0.8672 1.0078 1.875 0.4219 0.9843 1.0547 2.6484l8.9766 22.172q1.0547 2.5312 1.0547 3.6797 0 1.1953-1.0078 2.2031-0.9844 0.9844-2.3907 0.9844-0.8203 0-1.4062-0.3047-0.5859-0.2813-0.9844-0.7735-0.3984-0.5156-0.8672-1.5468-0.4453-1.0547-0.7734-1.8516zm-13.781-9.5391h10.266l-5.1797-14.18z"/>
   </g>
   <g id="1B_ipsi_label" transform="matrix(.33434 0 0 .34488 -2766.6 -1200.5)" stroke-linejoin="round" aria-label="1B">
    <path id="path6005" d="m8527.5 3365.7v-21.328q-5.9532 4.5703-8.0157 4.5703-0.9843 0-1.7578-0.7734-0.75-0.7969-0.75-1.8281 0-1.1953 0.75-1.7578t2.6485-1.4532q2.8359-1.3359 4.5234-2.8125 1.7109-1.4765 3.0234-3.3047 1.3125-1.8281 1.711-2.25 0.3984-0.4218 1.5-0.4218 1.2422 0 1.9922 0.9609t0.75 2.6484v26.836q0 4.7109-3.211 4.7109-1.4297 0-2.2969-0.9609-0.8671-0.961-0.8671-2.836z"/>
    <path id="path6007" d="m8560.9 3368.9h-10.5q-2.2734 0-3.2578-1.0078-0.961-1.0313-0.961-3.2578v-25.828q0-2.2734 0.9844-3.2578 1.0078-1.0078 3.2344-1.0078h11.133q2.4609 0 4.2656 0.3047t3.2344 1.1719q1.2188 0.7265 2.1563 1.8515 0.9375 1.1016 1.4296 2.461 0.4922 1.3359 0.4922 2.8359 0 5.1563-5.1562 7.5469 6.7734 2.1562 6.7734 8.3906 0 2.8828-1.4765 5.2031-1.4766 2.2969-3.9844 3.3985-1.5703 0.6562-3.6094 0.9375-2.0391 0.2578-4.7578 0.2578zm-0.5156-15.258h-7.2422v10.031h7.4765q7.0547 0 7.0547-5.0859 0-2.6016-1.8281-3.7735-1.8281-1.1718-5.4609-1.1718zm-7.2422-13.875v8.8828h6.375q2.6015 0 4.0078-0.4922 1.4297-0.4922 2.1797-1.875 0.5859-0.9844 0.5859-2.2031 0-2.6016-1.8515-3.4453-1.8516-0.8672-5.6485-0.8672z"/>
   </g>
   <g id="flowRoot53903-3-67-6" transform="matrix(.33434 0 0 .34488 -2802.6 -1166.7)" stroke-linejoin="round" aria-label="2A">
    <path id="path6010" d="m8524.6 3362.9h12.234q1.8281 0 2.7891 0.75 0.9609 0.75 0.9609 2.039 0 1.1485-0.7734 1.9454-0.75 0.7968-2.2969 0.7968h-17.25q-1.7578 0-2.7422-0.9609-0.9844-0.9844-0.9844-2.2969 0-0.8437 0.6328-2.2265 0.6328-1.4063 1.3828-2.2032 3.1172-3.2343 5.625-5.5312 2.5079-2.3203 3.586-3.0469 1.9219-1.3594 3.1875-2.7187 1.289-1.3829 1.9453-2.8125 0.6797-1.4532 0.6797-2.836 0-1.5-0.7266-2.6719-0.7031-1.1953-1.9453-1.8515-1.2187-0.6563-2.6719-0.6563-3.0703 0-4.8281 2.6953-0.2344 0.3516-0.7969 1.9219-0.539 1.5703-1.2422 2.4141-0.6796 0.8437-2.0156 0.8437-1.1719 0-1.9453-0.7734t-0.7734-2.1094q0-1.6172 0.7265-3.375 0.7266-1.7578 2.1563-3.1875 1.4531-1.4297 3.6562-2.2969 2.2266-0.8906 5.2032-0.8906 3.5859 0 6.1171 1.125 1.6407 0.75 2.8829 2.0625 1.2421 1.3125 1.9218 3.0469 0.7032 1.7109 0.7032 3.5625 0 2.9062-1.4532 5.2969-1.4297 2.3672-2.9297 3.7265-1.5 1.336-5.039 4.2188-3.5156 2.8828-4.8281 4.4765-0.5625 0.6329-1.1485 1.5235z"/>
    <path id="path6012" d="m8568.2 3364.5-1.6406-4.3125h-13.969l-1.6406 4.4063q-0.9609 2.5781-1.6406 3.4921-0.6797 0.8907-2.2266 0.8907-1.3125 0-2.3203-0.961-1.0078-0.9609-1.0078-2.1797 0-0.7031 0.2344-1.4531 0.2343-0.75 0.7734-2.0859l8.7891-22.312q0.375-0.961 0.8906-2.2969 0.539-1.3594 1.125-2.25 0.6094-0.8906 1.5703-1.4297 0.9844-0.5625 2.4141-0.5625 1.4531 0 2.414 0.5625 0.9844 0.5391 1.5703 1.4063 0.6094 0.8672 1.0078 1.875 0.4219 0.9843 1.0547 2.6484l8.9766 22.172q1.0547 2.5312 1.0547 3.6797 0 1.1953-1.0078 2.2031-0.9844 0.9844-2.3907 0.9844-0.8203 0-1.4062-0.3047-0.5859-0.2813-0.9844-0.7735-0.3984-0.5156-0.8672-1.5468-0.4453-1.0547-0.7734-1.8516zm-13.781-9.5391h10.266l-5.1797-14.18z"/>
   </g>
   <g id="2B_ipsi_label" transform="matrix(.33434 0 0 .34488 -2836.7 -1165.3)" opacity=".76" stroke-linejoin="round" stroke-width="8.315" aria-label="2B">
    <path id="path5995" d="m8524.6 3362.9h12.234q1.8281 0 2.7891 0.75 0.9609 0.75 0.9609 2.039 0 1.1485-0.7734 1.9454-0.75 0.7968-2.2969 0.7968h-17.25q-1.7578 0-2.7422-0.9609-0.9844-0.9844-0.9844-2.2969 0-0.8437 0.6328-2.2265 0.6328-1.4063 1.3828-2.2032 3.1172-3.2343 5.625-5.5312 2.5079-2.3203 3.586-3.0469 1.9219-1.3594 3.1875-2.7187 1.289-1.3829 1.9453-2.8125 0.6797-1.4532 0.6797-2.836 0-1.5-0.7266-2.6719-0.7031-1.1953-1.9453-1.8515-1.2187-0.6563-2.6719-0.6563-3.0703 0-4.8281 2.6953-0.2344 0.3516-0.7969 1.9219-0.539 1.5703-1.2422 2.4141-0.6796 0.8437-2.0156 0.8437-1.1719 0-1.9453-0.7734t-0.7734-2.1094q0-1.6172 0.7265-3.375 0.7266-1.7578 2.1563-3.1875 1.4531-1.4297 3.6562-2.2969 2.2266-0.8906 5.2032-0.8906 3.5859 0 6.1171 1.125 1.6407 0.75 2.8829 2.0625 1.2421 1.3125 1.9218 3.0469 0.7032 1.7109 0.7032 3.5625 0 2.9062-1.4532 5.2969-1.4297 2.3672-2.9297 3.7265-1.5 1.336-5.039 4.2188-3.5156 2.8828-4.8281 4.4765-0.5625 0.6329-1.1485 1.5235z"/>
    <path id="path5997" d="m8560.9 3368.4h-10.5q-2.2734 0-3.2578-1.0078-0.961-1.0312-0.961-3.2578v-25.828q0-2.2735 0.9844-3.2578 1.0078-1.0078 3.2344-1.0078h11.133q2.4609 0 4.2656 0.3046 1.8047 0.3047 3.2344 1.1719 1.2188 0.7266 2.1563 1.8516 0.9375 1.1015 1.4296 2.4609 0.4922 1.336 0.4922 2.836 0 5.1562-5.1562 7.5468 6.7734 2.1563 6.7734 8.3907 0 2.8828-1.4765 5.2031-1.4766 2.2969-3.9844 3.3984-1.5703 0.6563-3.6094 0.9375-2.0391 0.2578-4.7578 0.2578zm-0.5156-15.258h-7.2422v10.031h7.4765q7.0547 0 7.0547-5.086 0-2.6015-1.8281-3.7734t-5.4609-1.1719zm-7.2422-13.875v8.8828h6.375q2.6015 0 4.0078-0.4922 1.4297-0.4921 2.1797-1.875 0.5859-0.9843 0.5859-2.2031 0-2.6015-1.8515-3.4453-1.8516-0.8672-5.6485-0.8672z"/>
   </g>
   <g id="3_ipsi_label" transform="matrix(.33434 0 0 .34488 -2772.4 -1111.5)" aria-label="3">
    <path id="path6015" d="m8527.1 3347.7q2.1563 0 3.7031-1.2656 1.5704-1.2656 1.5704-3.6328 0-1.8047-1.2422-3.0937-1.2422-1.3125-3.3516-1.3125-1.4297 0-2.3672 0.3984-0.914 0.3984-1.4531 1.0547-0.5391 0.6562-1.0313 1.6875-0.4687 1.0312-0.8671 1.9453-0.2344 0.4922-0.8438 0.7734-0.6094 0.2813-1.4062 0.2813-0.9375 0-1.7344-0.75-0.7735-0.7735-0.7735-2.0391 0-1.2187 0.7266-2.5547 0.75-1.3593 2.1563-2.5781 1.4296-1.2187 3.539-1.9453 2.1094-0.75 4.711-0.75 2.2734 0 4.1484 0.6328 1.875 0.6094 3.2578 1.7813 1.3828 1.1718 2.0859 2.7187 0.7032 1.5469 0.7032 3.3281 0 2.3438-1.0313 4.0313-1.0078 1.664-2.9062 3.2578 1.8281 0.9844 3.0703 2.25 1.2656 1.2656 1.8984 2.8125 0.6328 1.5234 0.6328 3.3047 0 2.1328-0.8672 4.125-0.8437 1.9922-2.5078 3.5625-1.664 1.5469-3.9609 2.4375-2.2734 0.8672-5.0391 0.8672-2.8125 0-5.039-1.0078-2.2266-1.0079-3.6797-2.5079-1.4297-1.5234-2.1797-3.1406-0.7266-1.6172-0.7266-2.6719 0-1.3593 0.8672-2.1796 0.8906-0.8438 2.2031-0.8438 0.6563 0 1.2657 0.3984 0.6093 0.375 0.7968 0.9141 1.2188 3.2578 2.6016 4.8516 1.4063 1.5703 3.9375 1.5703 1.4531 0 2.7891-0.7031 1.3593-0.7266 2.2265-2.1329 0.8907-1.4062 0.8907-3.2578 0-2.7422-1.5-4.289-1.5-1.5703-4.1719-1.5703-0.4688 0-1.4531 0.094-0.9844 0.094-1.2657 0.094-1.289 0-1.9922-0.6329-0.7031-0.6562-0.7031-1.8046 0-1.125 0.8438-1.8047 0.8437-0.7032 2.5078-0.7032z" stroke-linejoin="round"/>
   </g>
   <g id="6_ipsi_label" transform="matrix(.33434 0 0 .34488 -2714.7 -1050.7)" aria-label="6">
    <path id="path6018" d="m8522.6 3349.8q1.5937-1.8984 3.4687-2.8125t4.1954-0.9141q2.2265 0 4.1015 0.8438 1.8985 0.8203 3.3047 2.3672 1.4297 1.5234 2.2031 3.6093 0.7735 2.086 0.7735 4.3594 0 3.3047-1.5235 6-1.5 2.6953-4.2187 4.2188-2.6953 1.5-6.1172 1.5-3.9375 0-6.7969-1.9219t-4.3828-5.6719q-1.5-3.7734-1.5-9.2109 0-4.4297 0.9141-7.9219 0.914-3.4922 2.625-5.7891 1.7109-2.2968 4.1484-3.4687t5.5547-1.1719q3 0 5.2734 1.1719 2.2969 1.1719 3.4453 2.9062 1.1719 1.7344 1.1719 3.3282 0 0.9609-0.7265 1.7578-0.7266 0.7734-1.8516 0.7734-0.9844 0-1.8281-0.6094-0.8438-0.6328-1.2422-1.7343-0.5391-1.4063-1.711-2.25-1.1718-0.8672-2.7187-0.8672-1.2422 0-2.4844 0.7265-1.2187 0.7032-2.0625 1.9219-1.7109 2.4844-2.0156 8.8594zm6.3281 14.555q2.3672 0 3.9141-1.9219 1.5469-1.9453 1.5469-5.0859 0-2.1328-0.7266-3.6563-0.7266-1.5469-1.9922-2.3437-1.2656-0.8203-2.7891-0.8203-1.4531 0-2.789 0.7734-1.3125 0.7734-2.1328 2.25-0.7969 1.4531-0.7969 3.4219 0 3.164 1.6406 5.2734t4.125 2.1094z" stroke-linejoin="round"/>
   </g>
   <g id="4_ipsi_label" transform="matrix(.33434 0 0 .34488 -2774.3 -1027.7)" aria-label="4">
    <path id="path6021" d="m8530.7 3365.4v-4.3594h-11.766q-2.2265 0-3.3515-1.0078-1.1016-1.0078-1.1016-2.7422 0-0.4453 0.1641-0.8906 0.164-0.4688 0.4922-0.961 0.3281-0.5156 0.6797-0.9843 0.3515-0.4688 0.8671-1.1485l12.422-16.617q1.2188-1.6406 1.9922-2.3672 0.7969-0.75 1.8984-0.75 3.5625 0 3.5625 4.0782v18.141h1.0079q1.8046 0 2.8828 0.4922 1.1015 0.4922 1.1015 2.1562 0 1.3594-0.8906 1.9922-0.8906 0.6094-2.6719 0.6094h-1.4297v4.3594q0 1.8047-0.7968 2.6953-0.7969 0.8672-2.1328 0.8672-1.3125 0-2.1329-0.8907-0.7968-0.914-0.7968-2.6718zm-10.078-9.6094h10.078v-13.617z" stroke-linejoin="round"/>
   </g>
   <g id="5A_ipsi_label" transform="matrix(.33434 0 0 .34488 -2830 -1101.4)" stroke-linejoin="round" aria-label="5A">
    <path id="path6024" d="m8536.1 3339.8h-11.133l-1.3359 7.5938q3.3281-1.7813 6.1406-1.7813 2.25 0 4.1953 0.8438 1.9688 0.8437 3.4453 2.3437 1.4766 1.4766 2.3203 3.5156 0.8438 2.0391 0.8438 4.3829 0 3.3984-1.5234 6.1875-1.5235 2.789-4.4063 4.4296-2.8594 1.6407-6.6094 1.6407-4.1953 0-6.8203-1.5469-2.6015-1.5469-3.7031-3.5391-1.0781-2.0156-1.0781-3.5156 0-0.9141 0.75-1.7344 0.7734-0.8203 1.9218-0.8203 1.9688 0 2.9297 2.2735 0.9375 2.0859 2.5313 3.2578 1.5937 1.1484 3.5625 1.1484 1.8047 0 3.164-0.9375 1.3594-0.9375 2.086-2.5781 0.75-1.6406 0.75-3.7266 0-2.25-0.7969-3.8437-0.7969-1.5938-2.1328-2.3672-1.3359-0.7969-2.9766-0.7969-2.0156 0-2.8828 0.4922t-2.5078 1.7344q-1.6172 1.2187-2.6719 1.2187-1.1484 0-2.039-0.8203-0.8907-0.8437-0.8907-1.8984 0-0.1172 0.2579-1.5938l1.9687-11.226q0.3281-2.0157 1.2188-2.9297 0.8906-0.9141 2.9062-0.9141h12.375q3.6563 0 3.6563 2.7891 0 1.2187-0.8907 1.9687-0.8906 0.75-2.625 0.75z"/>
    <path id="path6026" d="m8568.2 3364.5-1.6406-4.3125h-13.969l-1.6406 4.4063q-0.9609 2.5781-1.6406 3.4921-0.6797 0.8907-2.2266 0.8907-1.3125 0-2.3203-0.961-1.0078-0.9609-1.0078-2.1797 0-0.7031 0.2344-1.4531 0.2343-0.75 0.7734-2.0859l8.7891-22.312q0.375-0.961 0.8906-2.2969 0.539-1.3594 1.125-2.25 0.6094-0.8906 1.5703-1.4297 0.9844-0.5625 2.4141-0.5625 1.4531 0 2.414 0.5625 0.9844 0.5391 1.5703 1.4063 0.6094 0.8672 1.0078 1.875 0.4219 0.9843 1.0547 2.6484l8.9766 22.172q1.0547 2.5312 1.0547 3.6797 0 1.1953-1.0078 2.2031-0.9844 0.9844-2.3907 0.9844-0.8203 0-1.4062-0.3047-0.5859-0.2813-0.9844-0.7735-0.3984-0.5156-0.8672-1.5468-0.4453-1.0547-0.7734-1.8516zm-13.781-9.5391h10.266l-5.1797-14.18z"/>
   </g>
   <g id="5B_ipsi_label" transform="matrix(.33434 0 0 .34488 -2828.1 -1036.5)" stroke-linejoin="round" aria-label="5B">
    <path id="path6029" d="m8536.1 3339.8h-11.133l-1.3359 7.5938q3.3281-1.7813 6.1406-1.7813 2.25 0 4.1953 0.8438 1.9688 0.8437 3.4453 2.3437 1.4766 1.4766 2.3203 3.5156 0.8438 2.0391 0.8438 4.3829 0 3.3984-1.5234 6.1875-1.5235 2.789-4.4063 4.4296-2.8594 1.6407-6.6094 1.6407-4.1953 0-6.8203-1.5469-2.6015-1.5469-3.7031-3.5391-1.0781-2.0156-1.0781-3.5156 0-0.9141 0.75-1.7344 0.7734-0.8203 1.9218-0.8203 1.9688 0 2.9297 2.2735 0.9375 2.0859 2.5313 3.2578 1.5937 1.1484 3.5625 1.1484 1.8047 0 3.164-0.9375 1.3594-0.9375 2.086-2.5781 0.75-1.6406 0.75-3.7266 0-2.25-0.7969-3.8437-0.7969-1.5938-2.1328-2.3672-1.3359-0.7969-2.9766-0.7969-2.0156 0-2.8828 0.4922t-2.5078 1.7344q-1.6172 1.2187-2.6719 1.2187-1.1484 0-2.039-0.8203-0.8907-0.8437-0.8907-1.8984 0-0.1172 0.2579-1.5938l1.9687-11.226q0.3281-2.0157 1.2188-2.9297 0.8906-0.9141 2.9062-0.9141h12.375q3.6563 0 3.6563 2.7891 0 1.2187-0.8907 1.9687-0.8906 0.75-2.625 0.75z"/>
    <path id="path6031" d="m8560.9 3368.4h-10.5q-2.2734 0-3.2578-1.0078-0.961-1.0312-0.961-3.2578v-25.828q0-2.2735 0.9844-3.2578 1.0078-1.0078 3.2344-1.0078h11.133q2.4609 0 4.2656 0.3046 1.8047 0.3047 3.2344 1.1719 1.2188 0.7266 2.1563 1.8516 0.9375 1.1015 1.4296 2.4609 0.4922 1.336 0.4922 2.836 0 5.1562-5.1562 7.5468 6.7734 2.1563 6.7734 8.3907 0 2.8828-1.4765 5.2031-1.4766 2.2969-3.9844 3.3984-1.5703 0.6563-3.6094 0.9375-2.0391 0.2578-4.7578 0.2578zm-0.5156-15.258h-7.2422v10.031h7.4765q7.0547 0 7.0547-5.086 0-2.6015-1.8281-3.7734t-5.4609-1.1719zm-7.2422-13.875v8.8828h6.375q2.6015 0 4.0078-0.4922 1.4297-0.4921 2.1797-1.875 0.5859-0.9843 0.5859-2.2031 0-2.6015-1.8515-3.4453-1.8516-0.8672-5.6485-0.8672z"/>
   </g>
  </g>
  <g>
   <path id="RPN" d="m65.422-95.733a26.891 23.343 0 0 1-26.891 23.343 26.891 23.343 0 0 1-26.891-23.343 26.891 23.343 0 0 1 26.891-23.343 26.891 23.343 0 0 1 26.891 23.343z" fill="#fff" stroke="#000" stroke-linejoin="round" stroke-width="3.1304"/>
   <g id="RPN_label" transform="matrix(.33434 0 0 .34488 -2825 -1252.2)" stroke-linejoin="round" aria-label="RPN">
    <path id="path6034" d="m8527 3353.7h-2.4375v11.039q0 2.1797-0.9609 3.2109-0.9609 1.0313-2.5078 1.0313-1.6641 0-2.5781-1.0782-0.9141-1.0781-0.9141-3.164v-26.438q0-2.25 1.0078-3.2578t3.2578-1.0078h11.32q2.3438 0 4.0079 0.2109 1.664 0.1875 3 0.7969 1.6171 0.6797 2.8593 1.9453t1.875 2.9531q0.6563 1.6641 0.6563 3.5391 0 3.8437-2.1797 6.1406-2.1563 2.2969-6.5625 3.2578 1.8516 0.9844 3.5391 2.9063 1.6875 1.9218 3 4.1015 1.3359 2.1563 2.0625 3.9141 0.75 1.7344 0.75 2.3906 0 0.6797-0.4454 1.3594-0.4218 0.6562-1.1718 1.0312-0.75 0.3985-1.7344 0.3985-1.1719 0-1.9688-0.5625-0.7968-0.5391-1.3828-1.3828-0.5625-0.8438-1.5468-2.4844l-2.7891-4.6406q-1.5-2.5547-2.6953-3.8907-1.1719-1.3359-2.3906-1.8281-1.2188-0.4922-3.0704-0.4922zm3.9844-14.438h-6.4219v9.4453h6.2344q2.5078 0 4.2188-0.4218 1.7109-0.4454 2.6015-1.4766 0.9141-1.0547 0.9141-2.8828 0-1.4297-0.7266-2.5078-0.7265-1.1016-2.0156-1.6407-1.2187-0.5156-4.8047-0.5156z"/>
    <path id="path6036" d="m8565.5 3355h-6.375v9.7266q0 2.0859-0.9844 3.164-0.9844 1.0782-2.4844 1.0782-1.5703 0-2.5312-1.0547-0.961-1.0781-0.961-3.1406v-26.484q0-2.2969 1.0547-3.2813 1.0547-0.9843 3.3516-0.9843h8.9297q3.9609 0 6.0937 0.6093 2.1094 0.586 3.6328 1.9453 1.5469 1.3594 2.3438 3.3282 0.7968 1.9687 0.7968 4.4297 0 5.25-3.2343 7.9687-3.2344 2.6953-9.6328 2.6953zm-1.6875-15.75h-4.6875v10.5h4.6875q2.4609 0 4.1015-0.5156 1.6641-0.5156 2.5313-1.6875t0.8672-3.0703q0-2.2735-1.336-3.7031-1.5-1.5235-6.164-1.5235z"/>
    <path id="path6038" d="m8593.3 3337.6 13.383 20.25v-20.438q0-1.9922 0.8437-2.9766 0.8672-1.0078 2.3203-1.0078 1.5 0 2.3672 1.0078 0.8672 0.9844 0.8672 2.9766v27.023q0 4.5235-3.75 4.5235-0.9375 0-1.6875-0.2813-0.75-0.2578-1.4062-0.8437-0.6563-0.586-1.2188-1.3594-0.5625-0.7969-1.125-1.6172l-13.055-20.016v20.133q0 1.9687-0.914 2.9766-0.9141 1.0078-2.3438 1.0078-1.4766 0-2.3672-1.0078-0.8906-1.0313-0.8906-2.9766v-26.508q0-1.6875 0.375-2.6485 0.4453-1.0546 1.4766-1.7109 1.0312-0.6797 2.2265-0.6797 0.9375 0 1.5938 0.3047 0.6797 0.3047 1.1718 0.8203 0.5157 0.5156 1.0313 1.336 0.5391 0.8203 1.1016 1.7109z"/>
   </g>
   <path id="1A_contra" d="m154.21 5.019v-118.24c17.567 0.67846 27.91 6.4984 38.952 13.258l-11.886 105.53z" fill="#fff" stroke="#000" stroke-width="2.5668"/>
  </g>
  <path id="1B_contra" d="m193.17-99.967c30.211 14.893 49.615 41.828 71.433 62.287l-65.276 39.415-18.044 3.832z" fill="none" opacity=".89032" stroke="#000" stroke-width="2.5668"/>
  <path id="6_contra" d="m181.28 5.5665 10.614 90.873 15.921 71.713 14.86 22.992h-68.991l0.53072-186.13c9.0248 0.0756 18.045 0.25745 27.066 0.54747z" fill="#fff" stroke="#000" stroke-width="2.5668"/>
  <g fill="none" stroke="#000" stroke-width="2.5668">
   <path id="2A_contra" d="m277.68-37.68-7.677 51.923-70.679-12.508 65.276-39.415z"/>
   <path id="2B_contra" d="m277.68-37.68c9.7408-5.9593 17.557-4.5275 25.661 3.8319l-5.3071 49.269-28.031-1.1774z"/>
   <path id="3_contra" d="m270 14.243-8.5393 75.157-69.569 7.0395-10.614-90.873 18.044-3.832z"/>
  </g>
  <g stroke="#000" stroke-width="2.5668">
   <path id="4_contra" d="m261.46 89.4-6.947 85.322-31.842 16.423-14.86-22.992-15.921-71.713z" fill="#fff"/>
   <path id="5A_contra" d="m261.46 89.4 34.978 9.2292 1.592-83.209-28.031-1.1774c-1.5726 0.81104-5.5733 42.493-7.4876 63.425-0.64394 7.0403-1.0517 11.733-1.0517 11.733" fill="#fff"/>
   <path id="5B_contra" d="m296.44 98.629 5.307 36.13-47.232 39.962 6.947-85.322z" fill="none"/>
  </g>
  <g>
   <g id="1A_contra_label" transform="matrix(.33434 0 0 .34488 -2686 -1213.7)" stroke-linejoin="round" aria-label="1A">
    <path id="path6041" d="m8527.5 3365.2v-21.328q-5.9532 4.5703-8.0157 4.5703-0.9843 0-1.7578-0.7735-0.75-0.7968-0.75-1.8281 0-1.1953 0.75-1.7578t2.6485-1.4531q2.8359-1.336 4.5234-2.8125 1.7109-1.4766 3.0234-3.3047t1.711-2.25q0.3984-0.4219 1.5-0.4219 1.2422 0 1.9922 0.961 0.75 0.9609 0.75 2.6484v26.836q0 4.711-3.211 4.711-1.4297 0-2.2969-0.961-0.8671-0.9609-0.8671-2.8359z"/>
    <path id="path6043" d="m8568.2 3364.5-1.6406-4.3125h-13.969l-1.6406 4.4063q-0.9609 2.5781-1.6406 3.4921-0.6797 0.8907-2.2266 0.8907-1.3125 0-2.3203-0.961-1.0078-0.9609-1.0078-2.1797 0-0.7031 0.2344-1.4531 0.2343-0.75 0.7734-2.0859l8.7891-22.312q0.375-0.961 0.8906-2.2969 0.539-1.3594 1.125-2.25 0.6094-0.8906 1.5703-1.4297 0.9844-0.5625 2.4141-0.5625 1.4531 0 2.414 0.5625 0.9844 0.5391 1.5703 1.4063 0.6094 0.8672 1.0078 1.875 0.4219 0.9843 1.0547 2.6484l8.9766 22.172q1.0547 2.5312 1.0547 3.6797 0 1.1953-1.0078 2.2031-0.9844 0.9844-2.3907 0.9844-0.8203 0-1.4062-0.3047-0.5859-0.2813-0.9844-0.7735-0.3984-0.5156-0.8672-1.5468-0.4453-1.0547-0.7734-1.8516zm-13.781-9.5391h10.266l-5.1797-14.18z"/>
   </g>
   <g id="1B_contra_label" transform="matrix(.33434 0 0 .34488 -2639.4 -1200.5)" stroke-linejoin="round" aria-label="1B">
    <path id="path6046" d="m8527.5 3365.7v-21.328q-5.9532 4.5703-8.0157 4.5703-0.9843 0-1.7578-0.7734-0.75-0.7969-0.75-1.8281 0-1.1953 0.75-1.7578t2.6485-1.4532q2.8359-1.3359 4.5234-2.8125 1.7109-1.4765 3.0234-3.3047 1.3125-1.8281 1.711-2.25 0.3984-0.4218 1.5-0.4218 1.2422 0 1.9922 0.9609t0.75 2.6484v26.836q0 4.7109-3.211 4.7109-1.4297 0-2.2969-0.9609-0.8671-0.961-0.8671-2.836z"/>
    <path id="path6048" d="m8560.9 3368.9h-10.5q-2.2734 0-3.2578-1.0078-0.961-1.0313-0.961-3.2578v-25.828q0-2.2734 0.9844-3.2578 1.0078-1.0078 3.2344-1.0078h11.133q2.4609 0 4.2656 0.3047t3.2344 1.1719q1.2188 0.7265 2.1563 1.8515 0.9375 1.1016 1.4296 2.461 0.4922 1.3359 0.4922 2.8359 0 5.1563-5.1562 7.5469 6.7734 2.1562 6.7734 8.3906 0 2.8828-1.4765 5.2031-1.4766 2.2969-3.9844 3.3985-1.5703 0.6562-3.6094 0.9375-2.0391 0.2578-4.7578 0.2578zm-0.5156-15.258h-7.2422v10.031h7.4765q7.0547 0 7.0547-5.0859 0-2.6016-1.8281-3.7735-1.8281-1.1718-5.4609-1.1718zm-7.2422-13.875v8.8828h6.375q2.6015 0 4.0078-0.4922 1.4297-0.4922 2.1797-1.875 0.5859-0.9844 0.5859-2.2031 0-2.6016-1.8515-3.4453-1.8516-0.8672-5.6485-0.8672z"/>
   </g>
   <g id="2A_contra_label" transform="matrix(.33434 0 0 .34488 -2603.5 -1166.7)" stroke-linejoin="round" aria-label="2A">
    <path id="path6051" d="m8524.6 3362.9h12.234q1.8281 0 2.7891 0.75 0.9609 0.75 0.9609 2.039 0 1.1485-0.7734 1.9454-0.75 0.7968-2.2969 0.7968h-17.25q-1.7578 0-2.7422-0.9609-0.9844-0.9844-0.9844-2.2969 0-0.8437 0.6328-2.2265 0.6328-1.4063 1.3828-2.2032 3.1172-3.2343 5.625-5.5312 2.5079-2.3203 3.586-3.0469 1.9219-1.3594 3.1875-2.7187 1.289-1.3829 1.9453-2.8125 0.6797-1.4532 0.6797-2.836 0-1.5-0.7266-2.6719-0.7031-1.1953-1.9453-1.8515-1.2187-0.6563-2.6719-0.6563-3.0703 0-4.8281 2.6953-0.2344 0.3516-0.7969 1.9219-0.539 1.5703-1.2422 2.4141-0.6796 0.8437-2.0156 0.8437-1.1719 0-1.9453-0.7734t-0.7734-2.1094q0-1.6172 0.7265-3.375 0.7266-1.7578 2.1563-3.1875 1.4531-1.4297 3.6562-2.2969 2.2266-0.8906 5.2032-0.8906 3.5859 0 6.1171 1.125 1.6407 0.75 2.8829 2.0625 1.2421 1.3125 1.9218 3.0469 0.7032 1.7109 0.7032 3.5625 0 2.9062-1.4532 5.2969-1.4297 2.3672-2.9297 3.7265-1.5 1.336-5.039 4.2188-3.5156 2.8828-4.8281 4.4765-0.5625 0.6329-1.1485 1.5235z"/>
    <path id="path6053" d="m8568.2 3364.5-1.6406-4.3125h-13.969l-1.6406 4.4063q-0.9609 2.5781-1.6406 3.4921-0.6797 0.8907-2.2266 0.8907-1.3125 0-2.3203-0.961-1.0078-0.9609-1.0078-2.1797 0-0.7031 0.2344-1.4531 0.2343-0.75 0.7734-2.0859l8.7891-22.312q0.375-0.961 0.8906-2.2969 0.539-1.3594 1.125-2.25 0.6094-0.8906 1.5703-1.4297 0.9844-0.5625 2.4141-0.5625 1.4531 0 2.414 0.5625 0.9844 0.5391 1.5703 1.4063 0.6094 0.8672 1.0078 1.875 0.4219 0.9843 1.0547 2.6484l8.9766 22.172q1.0547 2.5312 1.0547 3.6797 0 1.1953-1.0078 2.2031-0.9844 0.9844-2.3907 0.9844-0.8203 0-1.4062-0.3047-0.5859-0.2813-0.9844-0.7735-0.3984-0.5156-0.8672-1.5468-0.4453-1.0547-0.7734-1.8516zm-13.781-9.5391h10.266l-5.1797-14.18z"/>
   </g>
   <g id="2B_contra_label" transform="matrix(.33434 0 0 .34488 -2569.1 -1165.3)" stroke-linejoin="round" aria-label="2B">
    <path id="path6056" d="m8524.6 3362.9h12.234q1.8281 0 2.7891 0.75 0.9609 0.75 0.9609 2.039 0 1.1485-0.7734 1.9454-0.75 0.7968-2.2969 0.7968h-17.25q-1.7578 0-2.7422-0.9609-0.9844-0.9844-0.9844-2.2969 0-0.8437 0.6328-2.2265 0.6328-1.4063 1.3828-2.2032 3.1172-3.2343 5.625-5.5312 2.5079-2.3203 3.586-3.0469 1.9219-1.3594 3.1875-2.7187 1.289-1.3829 1.9453-2.8125 0.6797-1.4532 0.6797-2.836 0-1.5-0.7266-2.6719-0.7031-1.1953-1.9453-1.8515-1.2187-0.6563-2.6719-0.6563-3.0703 0-4.8281 2.6953-0.2344 0.3516-0.7969 1.9219-0.539 1.5703-1.2422 2.4141-0.6796 0.8437-2.0156 0.8437-1.1719 0-1.9453-0.7734t-0.7734-2.1094q0-1.6172 0.7265-3.375 0.7266-1.7578 2.1563-3.1875 1.4531-1.4297 3.6562-2.2969 2.2266-0.8906 5.2032-0.8906 3.5859 0 6.1171 1.125 1.6407 0.75 2.8829 2.0625 1.2421 1.3125 1.9218 3.0469 0.7032 1.7109 0.7032 3.5625 0 2.9062-1.4532 5.2969-1.4297 2.3672-2.9297 3.7265-1.5 1.336-5.039 4.2188-3.5156 2.8828-4.8281 4.4765-0.5625 0.6329-1.1485 1.5235z"/>
    <path id="path6058" d="m8560.9 3368.4h-10.5q-2.2734 0-3.2578-1.0078-0.961-1.0312-0.961-3.2578v-25.828q0-2.2735 0.9844-3.2578 1.0078-1.0078 3.2344-1.0078h11.133q2.4609 0 4.2656 0.3046 1.8047 0.3047 3.2344 1.1719 1.2188 0.7266 2.1563 1.8516 0.9375 1.1015 1.4296 2.4609 0.4922 1.336 0.4922 2.836 0 5.1562-5.1562 7.5468 6.7734 2.1563 6.7734 8.3907 0 2.8828-1.4765 5.2031-1.4766 2.2969-3.9844 3.3984-1.5703 0.6563-3.6094 0.9375-2.0391 0.2578-4.7578 0.2578zm-0.5156-15.258h-7.2422v10.031h7.4765q7.0547 0 7.0547-5.086 0-2.6015-1.8281-3.7734t-5.4609-1.1719zm-7.2422-13.875v8.8828h6.375q2.6015 0 4.0078-0.4922 1.4297-0.4921 2.1797-1.875 0.5859-0.9843 0.5859-2.2031 0-2.6015-1.8515-3.4453-1.8516-0.8672-5.6485-0.8672z"/>
   </g>
   <g id="3_contra_label" transform="matrix(.33434 0 0 .34488 -2621.9 -1111.5)" aria-label="3">
    <path id="path6061" d="m8527.1 3347.7q2.1563 0 3.7031-1.2656 1.5704-1.2656 1.5704-3.6328 0-1.8047-1.2422-3.0937-1.2422-1.3125-3.3516-1.3125-1.4297 0-2.3672 0.3984-0.914 0.3984-1.4531 1.0547-0.5391 0.6562-1.0313 1.6875-0.4687 1.0312-0.8671 1.9453-0.2344 0.4922-0.8438 0.7734-0.6094 0.2813-1.4062 0.2813-0.9375 0-1.7344-0.75-0.7735-0.7735-0.7735-2.0391 0-1.2187 0.7266-2.5547 0.75-1.3593 2.1563-2.5781 1.4296-1.2187 3.539-1.9453 2.1094-0.75 4.711-0.75 2.2734 0 4.1484 0.6328 1.875 0.6094 3.2578 1.7813 1.3828 1.1718 2.0859 2.7187 0.7032 1.5469 0.7032 3.3281 0 2.3438-1.0313 4.0313-1.0078 1.664-2.9062 3.2578 1.8281 0.9844 3.0703 2.25 1.2656 1.2656 1.8984 2.8125 0.6328 1.5234 0.6328 3.3047 0 2.1328-0.8672 4.125-0.8437 1.9922-2.5078 3.5625-1.664 1.5469-3.9609 2.4375-2.2734 0.8672-5.0391 0.8672-2.8125 0-5.039-1.0078-2.2266-1.0079-3.6797-2.5079-1.4297-1.5234-2.1797-3.1406-0.7266-1.6172-0.7266-2.6719 0-1.3593 0.8672-2.1796 0.8906-0.8438 2.2031-0.8438 0.6563 0 1.2657 0.3984 0.6093 0.375 0.7968 0.9141 1.2188 3.2578 2.6016 4.8516 1.4063 1.5703 3.9375 1.5703 1.4531 0 2.7891-0.7031 1.3593-0.7266 2.2265-2.1329 0.8907-1.4062 0.8907-3.2578 0-2.7422-1.5-4.289-1.5-1.5703-4.1719-1.5703-0.4688 0-1.4531 0.094-0.9844 0.094-1.2657 0.094-1.289 0-1.9922-0.6329-0.7031-0.6562-0.7031-1.8046 0-1.125 0.8438-1.8047 0.8437-0.7032 2.5078-0.7032z" stroke-linejoin="round"/>
   </g>
   <g id="6_contra_label" transform="matrix(.33434 0 0 .34488 -2679.7 -1050.7)" aria-label="6">
    <path id="path6064" d="m8522.6 3349.8q1.5937-1.8984 3.4687-2.8125t4.1954-0.9141q2.2265 0 4.1015 0.8438 1.8985 0.8203 3.3047 2.3672 1.4297 1.5234 2.2031 3.6093 0.7735 2.086 0.7735 4.3594 0 3.3047-1.5235 6-1.5 2.6953-4.2187 4.2188-2.6953 1.5-6.1172 1.5-3.9375 0-6.7969-1.9219t-4.3828-5.6719q-1.5-3.7734-1.5-9.2109 0-4.4297 0.9141-7.9219 0.914-3.4922 2.625-5.7891 1.7109-2.2968 4.1484-3.4687t5.5547-1.1719q3 0 5.2734 1.1719 2.2969 1.1719 3.4453 2.9062 1.1719 1.7344 1.1719 3.3282 0 0.9609-0.7265 1.7578-0.7266 0.7734-1.8516 0.7734-0.9844 0-1.8281-0.6094-0.8438-0.6328-1.2422-1.7343-0.5391-1.4063-1.711-2.25-1.1718-0.8672-2.7187-0.8672-1.2422 0-2.4844 0.7265-1.2187 0.7032-2.0625 1.9219-1.7109 2.4844-2.0156 8.8594zm6.3281 14.555q2.3672 0 3.9141-1.9219 1.5469-1.9453 1.5469-5.0859 0-2.1328-0.7266-3.6563-0.7266-1.5469-1.9922-2.3437-1.2656-0.8203-2.7891-0.8203-1.4531 0-2.789 0.7734-1.3125 0.7734-2.1328 2.25-0.7969 1.4531-0.7969 3.4219 0 3.164 1.6406 5.2734t4.125 2.1094z" stroke-linejoin="round"/>
   </g>
   <g id="4_contra_label" transform="matrix(.33434 0 0 .34488 -2619.8 -1027.7)" aria-label="4">
    <path id="path6067" d="m8530.7 3365.4v-4.3594h-11.766q-2.2265 0-3.3515-1.0078-1.1016-1.0078-1.1016-2.7422 0-0.4453 0.1641-0.8906 0.164-0.4688 0.4922-0.961 0.3281-0.5156 0.6797-0.9843 0.3515-0.4688 0.8671-1.1485l12.422-16.617q1.2188-1.6406 1.9922-2.3672 0.7969-0.75 1.8984-0.75 3.5625 0 3.5625 4.0782v18.141h1.0079q1.8046 0 2.8828 0.4922 1.1015 0.4922 1.1015 2.1562 0 1.3594-0.8906 1.9922-0.8906 0.6094-2.6719 0.6094h-1.4297v4.3594q0 1.8047-0.7968 2.6953-0.7969 0.8672-2.1328 0.8672-1.3125 0-2.1329-0.8907-0.7968-0.914-0.7968-2.6718zm-10.078-9.6094h10.078v-13.617z" stroke-linejoin="round"/>
   </g>
   <g id="5A_contral_label" transform="matrix(.33434 0 0 .34488 -2576.1 -1101.4)" stroke-linejoin="round" aria-label="5A">
    <path id="path6070" d="m8536.1 3339.8h-11.133l-1.3359 7.5938q3.3281-1.7813 6.1406-1.7813 2.25 0 4.1953 0.8438 1.9688 0.8437 3.4453 2.3437 1.4766 1.4766 2.3203 3.5156 0.8438 2.0391 0.8438 4.3829 0 3.3984-1.5234 6.1875-1.5235 2.789-4.4063 4.4296-2.8594 1.6407-6.6094 1.6407-4.1953 0-6.8203-1.5469-2.6015-1.5469-3.7031-3.5391-1.0781-2.0156-1.0781-3.5156 0-0.9141 0.75-1.7344 0.7734-0.8203 1.9218-0.8203 1.9688 0 2.9297 2.2735 0.9375 2.0859 2.5313 3.2578 1.5937 1.1484 3.5625 1.1484 1.8047 0 3.164-0.9375 1.3594-0.9375 2.086-2.5781 0.75-1.6406 0.75-3.7266 0-2.25-0.7969-3.8437-0.7969-1.5938-2.1328-2.3672-1.3359-0.7969-2.9766-0.7969-2.0156 0-2.8828 0.4922t-2.5078 1.7344q-1.6172 1.2187-2.6719 1.2187-1.1484 0-2.039-0.8203-0.8907-0.8437-0.8907-1.8984 0-0.1172 0.2579-1.5938l1.9687-11.226q0.3281-2.0157 1.2188-2.9297 0.8906-0.9141 2.9062-0.9141h12.375q3.6563 0 3.6563 2.7891 0 1.2187-0.8907 1.9687-0.8906 0.75-2.625 0.75z"/>
    <path id="path6072" d="m8568.2 3364.5-1.6406-4.3125h-13.969l-1.6406 4.4063q-0.9609 2.5781-1.6406 3.4921-0.6797 0.8907-2.2266 0.8907-1.3125 0-2.3203-0.961-1.0078-0.9609-1.0078-2.1797 0-0.7031 0.2344-1.4531 0.2343-0.75 0.7734-2.0859l8.7891-22.312q0.375-0.961 0.8906-2.2969 0.539-1.3594 1.125-2.25 0.6094-0.8906 1.5703-1.4297 0.9844-0.5625 2.4141-0.5625 1.4531 0 2.414 0.5625 0.9844 0.5391 1.5703 1.4063 0.6094 0.8672 1.0078 1.875 0.4219 0.9843 1.0547 2.6484l8.9766 22.172q1.0547 2.5312 1.0547 3.6797 0 1.1953-1.0078 2.2031-0.9844 0.9844-2.3907 0.9844-0.8203 0-1.4062-0.3047-0.5859-0.2813-0.9844-0.7735-0.3984-0.5156-0.8672-1.5468-0.4453-1.0547-0.7734-1.8516zm-13.781-9.5391h10.266l-5.1797-14.18z"/>
   </g>
   <g id="5B_contra_label" transform="matrix(.33434 0 0 .34488 -2577.7 -1036.5)" stroke-linejoin="round" aria-label="5B">
    <path id="path6075" d="m8536.1 3339.8h-11.133l-1.3359 7.5938q3.3281-1.7813 6.1406-1.7813 2.25 0 4.1953 0.8438 1.9688 0.8437 3.4453 2.3437 1.4766 1.4766 2.3203 3.5156 0.8438 2.0391 0.8438 4.3829 0 3.3984-1.5234 6.1875-1.5235 2.789-4.4063 4.4296-2.8594 1.6407-6.6094 1.6407-4.1953 0-6.8203-1.5469-2.6015-1.5469-3.7031-3.5391-1.0781-2.0156-1.0781-3.5156 0-0.9141 0.75-1.7344 0.7734-0.8203 1.9218-0.8203 1.9688 0 2.9297 2.2735 0.9375 2.0859 2.5313 3.2578 1.5937 1.1484 3.5625 1.1484 1.8047 0 3.164-0.9375 1.3594-0.9375 2.086-2.5781 0.75-1.6406 0.75-3.7266 0-2.25-0.7969-3.8437-0.7969-1.5938-2.1328-2.3672-1.3359-0.7969-2.9766-0.7969-2.0156 0-2.8828 0.4922t-2.5078 1.7344q-1.6172 1.2187-2.6719 1.2187-1.1484 0-2.039-0.8203-0.8907-0.8437-0.8907-1.8984 0-0.1172 0.2579-1.5938l1.9687-11.226q0.3281-2.0157 1.2188-2.9297 0.8906-0.9141 2.9062-0.9141h12.375q3.6563 0 3.6563 2.7891 0 1.2187-0.8907 1.9687-0.8906 0.75-2.625 0.75z"/>
    <path id="path6077" d="m8560.9 3368.4h-10.5q-2.2734 0-3.2578-1.0078-0.961-1.0312-0.961-3.2578v-25.828q0-2.2735 0.9844-3.2578 1.0078-1.0078 3.2344-1.0078h11.133q2.4609 0 4.2656 0.3046 1.8047 0.3047 3.2344 1.1719 1.2188 0.7266 2.1563 1.8516 0.9375 1.1015 1.4296 2.4609 0.4922 1.336 0.4922 2.836 0 5.1562-5.1562 7.5468 6.7734 2.1563 6.7734 8.3907 0 2.8828-1.4765 5.2031-1.4766 2.2969-3.9844 3.3984-1.5703 0.6563-3.6094 0.9375-2.0391 0.2578-4.7578 0.2578zm-0.5156-15.258h-7.2422v10.031h7.4765q7.0547 0 7.0547-5.086 0-2.6015-1.8281-3.7734t-5.4609-1.1719zm-7.2422-13.875v8.8828h6.375q2.6015 0 4.0078-0.4922 1.4297-0.4921 2.1797-1.875 0.5859-0.9843 0.5859-2.2031 0-2.6015-1.8515-3.4453-1.8516-0.8672-5.6485-0.8672z"/>
   </g>
  </g>
 </g>
</svg>
