<?xml version="1.0" encoding="UTF-8" standalone="no"?>
<svg
   xmlns:dc="http://purl.org/dc/elements/1.1/"
   xmlns:cc="http://creativecommons.org/ns#"
   xmlns:rdf="http://www.w3.org/1999/02/22-rdf-syntax-ns#"
   xmlns:svg="http://www.w3.org/2000/svg"
   xmlns="http://www.w3.org/2000/svg"
   xmlns:sodipodi="http://sodipodi.sourceforge.net/DTD/sodipodi-0.dtd"
   xmlns:inkscape="http://www.inkscape.org/namespaces/inkscape"
   width="66.524498mm"
   height="74.053329mm"
   viewBox="0 0 66.524498 74.053329"
   version="1.1"
   id="svg8"
   sodipodi:docname="subsites.svg"
   inkscape:version="1.0.1 (3bc2e813f5, 2020-09-07)">
  <metadata
     id="metadata17">
    <rdf:RDF>
      <cc:Work
         rdf:about="">
        <dc:format>image/svg+xml</dc:format>
        <dc:type
           rdf:resource="http://purl.org/dc/dcmitype/StillImage" />
      </cc:Work>
    </rdf:RDF>
  </metadata>
  <defs
     id="defs15" />
  <sodipodi:namedview
     pagecolor="#ffffff"
     bordercolor="#666666"
     borderopacity="1"
     objecttolerance="10"
     gridtolerance="10"
     guidetolerance="10"
     inkscape:pageopacity="0"
     inkscape:pageshadow="2"
     inkscape:window-width="1858"
     inkscape:window-height="1057"
     id="namedview13"
     showgrid="false"
     inkscape:zoom="3.244171"
     inkscape:cx="125.71559"
     inkscape:cy="139.9433"
     inkscape:window-x="54"
     inkscape:window-y="-8"
     inkscape:window-maximized="1"
     inkscape:current-layer="svg8" />
  <path
     style="fill:none;stroke:#000000;stroke-width:0.264583px;stroke-linecap:butt;stroke-linejoin:miter;stroke-opacity:1"
     d="m 12.436625,35.477123 3.31161,-3.91369 2.93528,-1.80633 3.46213,-0.90316 3.46215,0.15052 4.5158,0.52684 4.96742,2.55897 4.89215,2.55897 3.53737,2.18266 0.82791,1.42999 -3.01053,-1.73106 -5.94585,-2.55897 -6.09635,-1.20423 -4.96742,-0.0753 -4.59107,1.88159 -3.68792,1.88158 c -2.448162,-0.164965 -3.61268,-0.97838 -3.61268,-0.97838 z"
     id="Soft_palate"
     sodipodi:nodetypes="ccccccccccccccccc" />
  <path
     style="fill:none;stroke:#000000;stroke-width:0.264583px;stroke-linecap:butt;stroke-linejoin:miter;stroke-opacity:1"
     d="m 30.123595,29.531303 5.43449,0.96449 4.51139,0.8056 4.67251,0.1611 5.07532,-0.0805 2.33627,0.24168 -1.36954,3.22241 -0.1611,3.14187 -0.0806,1.93347 -2.90017,1.20841 -3.29375,-2.8679 -0.82791,-1.42999 -3.53737,-2.18266 z"
     id="Hard_palate" />
  <path
     style="fill:none;stroke:#000000;stroke-width:0.264583px;stroke-linecap:butt;stroke-linejoin:miter;stroke-opacity:1"
     d="m 46.514325,47.171813 -0.72504,-2.98074 -1.69177,-2.41681 -2.57794,-2.25571 -4.83365,-2.41681 -5.80035,-0.48336 -6.84766,0.4028 -1.53064,1.28897 1.20841,8.37832 -0.2417,8.70053 -1.28897,5.15589 v 1.36953 l 12.72857,1.20841 5.71982,-0.32224 0.32224,-1.93347 1.2084,-3.78635 1.0473,-1.93344 1.0473,-1.6112 c 0,0 1.10155,-3.4789 2.25568,-6.36432 z"
     id="Tongue" />
  <path
     style="fill:none;stroke:#000000;stroke-width:0.264583px;stroke-linecap:butt;stroke-linejoin:miter;stroke-opacity:1"
     d="m 22.507275,38.310153 1.20841,8.37832 -0.2417,8.70053 -1.28897,5.15589 v 1.36953 l -3.78635,1.20841 -5.47812,-0.24167 -0.96673,-2.25571 -0.72504,-3.78635 -0.56393,-4.18914 0.56393,-2.90021 1.85291,-1.04727 1.45007,-2.90018 2.01404,-3.38354 3.14184,-2.73908 2.81964,-1.36953"
     id="BOT" />
  <path
     style="fill:none;stroke:#000000;stroke-width:0.264583px;stroke-linecap:butt;stroke-linejoin:miter;stroke-opacity:1"
     d="m 14.612405,42.391063 -0.08065,3.41124 -1.45007,2.90018 -1.85291,1.04727 -1.7276884,-3.371755 -0.22577,-1.354938 0.6023388,-2.094817 0.3010696,-2.55897 2.007202,1.303851 0.652075,0.492001 z"
     id="Tonsil"
     sodipodi:nodetypes="ccccccccccc" />
  <path
     style="fill:none;stroke:#000000;stroke-width:0.264583px;stroke-linecap:butt;stroke-linejoin:miter;stroke-opacity:1"
     d="m 12.436625,35.477123 -6.6053999,-0.63108 0.0805,-4.26971 -0.72504,-3.78635 0.8056,-4.67252 6.3642899,-4.59195 2.01404,0.88617 1.93344,3.06131 1.4501,3.70578 0.96671,2.81961 -0.0374,1.75872 -2.93528,1.80633 z"
     id="path889" />
  <path
     style="fill:none;stroke:#000000;stroke-width:0.264583px;stroke-linecap:butt;stroke-linejoin:miter;stroke-opacity:1"
     d="m 5.8312251,34.846043 6.6053999,0.63108 -1.35474,2.40845 -0.90316,2.4837 -0.3010696,2.55897 -0.6023388,2.094817 0.22577,1.354938 1.7276884,3.371755 -0.56393,2.90021 -0.8314998,7.649264 -0.8602701,2.984736 v 0 l -3.78635,-0.88617 1.53067,-7.65326 0.1611,-5.47812 0.2417,-4.51141 -0.16113,-3.54467 z"
     id="Pharyngeal_wall"
     sodipodi:nodetypes="cccccccccccccccccc" />
  <path
     style="fill:none;stroke:#000000;stroke-width:0.264583px;stroke-linecap:butt;stroke-linejoin:miter;stroke-opacity:1"
     d="m 12.356565,17.525513 3.67522,-3.26895 0.92019,-3.16733 0.32269,-1.8555198 10.81043,-2.33958 13.31134,-2.3395502 6.85737,0.24202 4.92117,3.6303702 5.72791,7.5027598 4.51779,7.3414 0.56472,3.79171 -4.51779,2.17824 -3.38836,1.2908 -3.92567,1.0918 -2.33627,-0.2417 -9.74783,-0.0806 -9.94588,-1.77009 -4.5158,-0.52684 -3.46215,-0.15052 -3.46213,0.90316 0.0373,-1.75872 -2.41681,-6.52539 -1.93345,-3.06131 -2.01403,-0.88617"
     id="Nasopharynx" />
  <path
     style="fill:none;stroke:#000000;stroke-width:0.264583px;stroke-linecap:butt;stroke-linejoin:miter;stroke-opacity:1"
     d="m 12.185927,41.673124 -2.007202,-1.303851 0.90316,-2.4837 1.35474,-2.40845 3.61268,0.97838 -0.30745,4.32207 -1.12945,1.61349 -1.774403,-0.225938 -0.652075,-0.492001"
     id="GPS"
     sodipodi:nodetypes="ccccccccc" />
  <path
     style="fill:none;stroke:#000000;stroke-width:0.264583px;stroke-linecap:butt;stroke-linejoin:miter;stroke-opacity:1"
     d="m 20.539275,73.911983 1.94451,-1.78247 4.69921,-0.32409 6.9678,-0.64818 6.9678,-0.64815 4.37515,-1.45838 3.72695,-1.9445 1.62044,-3.72698 0.16203,-3.07879 -0.81021,-4.37513 0.97227,-1.29632 2.10653,-1.78247 2.10653,-1.1343 0.97227,-2.91677 -0.48612,-2.75471 -0.97226,-1.45835 -0.64818,-0.97227 1.78247,-0.48612 1.78247,-1.45838 0.32409,-2.59268 v -1.29632 l -0.64818,-1.45839 -0.8102,-2.26859 0.61785,-3.05459 1.0109,-0.58523 2.34095,-0.15962 2.60697,-0.53202 2.60699,-1.48971 0.53202,-3.03261 -0.42561,-2.60699 -1.48971,-2.12815 -2.23456,-2.76659 -1.3833,-3.19222 -1.5961,-2.92619 -1.27687,-2.1813498 -2.12815,-2.8198 -1.64934,-2.8198002 -0.10639,-1.6493 -48.9473799,-1.96853 -3.29862,21.70708 -0.10641,17.238 0.69165,10.16188 -0.74486,11.75803 -1.54289,9.41702 z"
     id="outline" />
</svg>
