<?xml version="1.0" encoding="UTF-8" standalone="no"?>
<svg
   xmlns:dc="http://purl.org/dc/elements/1.1/"
   xmlns:cc="http://creativecommons.org/ns#"
   xmlns:rdf="http://www.w3.org/1999/02/22-rdf-syntax-ns#"
   xmlns:svg="http://www.w3.org/2000/svg"
   xmlns="http://www.w3.org/2000/svg"
   width="49.994827mm"
   height="49.329594mm"
   viewBox="0 0 49.994829 49.329594"
   version="1.1"
   id="svg2960">
  <defs
     id="defs2954" />
  <metadata
     id="metadata2957">
    <rdf:RDF>
      <cc:Work
         rdf:about="">
        <dc:format>image/svg+xml</dc:format>
        <dc:type
           rdf:resource="http://purl.org/dc/dcmitype/StillImage" />
        <dc:title></dc:title>
      </cc:Work>
    </rdf:RDF>
  </metadata>
  <path
     style="opacity:0.996087;fill:none;stroke:#000000;stroke-width:0.2;stroke-linecap:butt;stroke-linejoin:miter;stroke-miterlimit:4;stroke-dasharray:none;stroke-opacity:1"
     d="m 16.992447,5.8845579 -0.235141,-2.090139 -2.719391,-3.55167896 -5.9985682,0.530599 -3.538961,-0.25895 0.345271,2.50316996 0.0104,2.66237 2.589501,-0.43158 9.5468982,0.63621"
     id="Genioglossus_M" />
  <path
     style="opacity:0.996087;fill:none;stroke:#000000;stroke-width:0.2;stroke-linecap:butt;stroke-linejoin:miter;stroke-miterlimit:4;stroke-dasharray:none;stroke-opacity:1"
     d="m 23.501105,12.367749 -4.042262,-0.36748 1.347412,-1.5924 2.714368,-1.0105001 0.960422,0.8880101 -0.97994,2.08237"
     id="Lower_Lip" />
  <path
     style="opacity:0.996087;fill:none;stroke:#000000;stroke-width:0.2;stroke-linecap:butt;stroke-linejoin:miter;stroke-miterlimit:4;stroke-dasharray:none;stroke-opacity:1"
     d="m 23.501105,12.367749 1.347419,2.08237 -0.980389,1.747979 -3.772702,-2.630939 -0.63659,-1.56689 z"
     id="Upper_Lip" />
  <path
     style="opacity:0.996087;fill:none;stroke:#000000;stroke-width:0.2;stroke-linecap:butt;stroke-linejoin:miter;stroke-miterlimit:4;stroke-dasharray:none;stroke-opacity:1"
     d="m -1.6677662,12.060659 -2.90042,-3.2918001 -4.77242,0.12415 -0.052,3.6956001 1.61781,6.60753 2.27335,1.09647 1.73091,0.27005 0.67763,-1.81889 2.66853997,-3.488709 z"
     id="SPC" />
  <path
     style="opacity:0.996087;fill:none;stroke:#000000;stroke-width:0.2;stroke-linecap:butt;stroke-linejoin:miter;stroke-miterlimit:4;stroke-dasharray:none;stroke-opacity:1"
     d="m -6.7207862,-16.876443 5.61056,-1.985279 -2.954091,-0.659636 -3.528844,0.222507 -2.062384,1.818191 -0.172641,0.863168 3.1074,-0.258951"
     id="Cricoid_cartilage" />
  <path
     style="opacity:0.996087;fill:none;stroke:#000000;stroke-width:0.2;stroke-linecap:butt;stroke-linejoin:miter;stroke-miterlimit:4;stroke-dasharray:none;stroke-opacity:1"
     d="m -12.167941,-18.090423 4.5747798,-1.208429 v 0 l -1.521848,-5.380021 -10.0633578,2.023608 1.140923,5.428003 z"
     id="Esophagus" />
  <path
     style="opacity:0.996087;fill:none;stroke:#000000;stroke-width:0.2;stroke-linecap:butt;stroke-linejoin:miter;stroke-miterlimit:4;stroke-dasharray:none;stroke-opacity:1"
     d="m 17.678573,12.272409 -7.6919182,0.13022 -5.40965,-2.17428 0.27904,-4.5484201 2.589509,-0.43158 9.5468912,0.63621 3.813839,4.5232601 -1.34742,1.5924 z"
     id="Tongue" />
  <path
     id="Extended_Oral_Cavity"
     style="opacity:0.996087;fill:none;stroke:#000000;stroke-width:0.2;stroke-linecap:butt;stroke-linejoin:miter;stroke-miterlimit:4;stroke-dasharray:none;stroke-opacity:1"
     d="M 16.822229,16.87878 2.8558738,16.463569 -0.42454623,15.25485 -1.6678962,12.060729 l 3.973699,-1.165963 2.271411,-0.666477 5.409491,2.17454 7.6920292,-0.13022 1.78026,-0.27234 0.636651,1.56683 3.772389,2.63085 z" />
  <path
     style="opacity:0.996087;fill:none;stroke:#000000;stroke-width:0.2;stroke-linecap:butt;stroke-linejoin:miter;stroke-miterlimit:4;stroke-dasharray:none;stroke-opacity:1"
     d="m 22.983923,19.604428 -2.992857,1.364011 -6.537198,0.181883 -7.7248292,-1.222116 -2.873334,-3.464718 13.9665242,0.415291 7.045905,-0.680681 -0.884211,3.40633"
     id="Hard_Palate" />
  <path
     style="opacity:0.996087;fill:none;stroke:#000000;stroke-width:0.2;stroke-linecap:butt;stroke-linejoin:miter;stroke-miterlimit:4;stroke-dasharray:none;stroke-opacity:1"
     d="m 5.7290388,19.928206 -4.054035,1.459021 -5.445539,-0.824569 0.67769,-1.81889 2.66854097,-3.488709 3.28001003,1.208429 z"
     id="Soft_Palate" />
  <path
     style="opacity:0.996087;fill:none;stroke:#000000;stroke-width:0.2;stroke-linecap:butt;stroke-linejoin:miter;stroke-miterlimit:4;stroke-dasharray:none;stroke-opacity:1"
     d="m -13.980735,22.947064 1.05028,-4.04314 -1.05028,-2.91635 -3.447851,-0.787698 -5.61203,0.656418 -0.52306,3.84289 1.57333,3.904351 4.59947,0.82712 z"
     id="Brainstem" />
  <path
     style="opacity:0.996087;mix-blend-mode:normal;fill:none;stroke:#000000;stroke-width:0.2;stroke-linecap:butt;stroke-linejoin:miter;stroke-miterlimit:4;stroke-dasharray:none;stroke-opacity:1;image-rendering:auto"
     d="m -18.569157,-8.8027281 -0.362205,-7.2320739 -5.536623,-0.696653 c -0.08385,-0.565129 0.194865,5.353397 0.880179,11.0927339 0.396263,3.318614 2.04575,5.55418304 2.302576,7.284964 l 5.588163,-1.15264996 z"
     id="Spinal_Cord" />
  <path
     style="opacity:0.996087;fill:none;stroke:#000000;stroke-width:0.2;stroke-linecap:butt;stroke-linejoin:miter;stroke-miterlimit:4;stroke-dasharray:none;stroke-opacity:1"
     d="m -11.007956,2.5297989 1.6673498,6.36321 4.77242,-0.12415 2.144751,-7.414923 -1.686779,-0.75851996 -4.147402,0.43441296 z"
     id="MPC" />
  <path
     style="opacity:0.996087;fill:none;stroke:#000000;stroke-width:0.2;stroke-linecap:butt;stroke-linejoin:miter;stroke-miterlimit:4;stroke-dasharray:none;stroke-opacity:1"
     d="m 5.6544438,-7.3087811 -3.522567,2.209743 -0.997863,-1.505735 -1.46737903,-4.6610989 5.20009903,-2.344539 0.78771,6.3016299"
     id="Thyroid_cartilage" />
  <path
     style="opacity:0.996087;fill:none;stroke:#000000;stroke-width:0.2;stroke-linecap:butt;stroke-linejoin:miter;stroke-miterlimit:4;stroke-dasharray:none;stroke-opacity:1"
     d="m 4.8667338,-13.610411 -1.40218,-4.30183 -5.35162,2.157911 1.55370097,4.488458 5.20009903,-2.344539"
     id="Glottic_Area" />
  <path
     style="opacity:0.996087;fill:none;stroke:#000000;stroke-width:0.2;stroke-linecap:butt;stroke-linejoin:miter;stroke-miterlimit:4;stroke-dasharray:none;stroke-opacity:1"
     d="m -1.1102262,-18.861722 -0.77684,3.107392 v 0 l 1.55370097,4.488458 -5.93204097,4.3317119 -3.56278,-9.6833319 3.1074,-0.258951 5.61056,-1.985279"
     id="Larynx" />
  <path
     style="opacity:0.996087;fill:none;stroke:#000000;stroke-width:0.2;stroke-linecap:butt;stroke-linejoin:miter;stroke-miterlimit:4;stroke-dasharray:none;stroke-opacity:1"
     d="m -6.2654062,-6.9341601 0.39657,1.387999 1.4786,4.55193904 3.10738,-0.0863 4.57478,-1.812639 -1.030231,-1.818317 -1.127679,-1.893295 -1.46737903,-4.6610809 -5.93204097,4.3317109"
     id="Supraglottic_Larynx" />
  <path
     style="opacity:0.996087;fill:none;stroke:#000000;stroke-width:0.2;stroke-linecap:butt;stroke-linejoin:miter;stroke-miterlimit:4;stroke-dasharray:none;stroke-opacity:1"
     d="m -4.1102152,0.59541594 1.68678,0.75851996 3.12585897,-1.05340696 -1.98528197,-1.38107104 -3.107379,0.0863 0.280021,1.589658"
     id="Hyoid_bone" />
  <path
     style="opacity:0.996087;fill:none;stroke:#000000;stroke-width:0.2;stroke-linecap:butt;stroke-linejoin:miter;stroke-miterlimit:4;stroke-dasharray:none;stroke-opacity:1"
     d="m -9.8281862,-16.617492 0.97562,2.97858 -4.0829998,5.0488519 -1.48019,-2.8036219 0.18543,-4.87855 4.5747798,-1.208429 z"
     id="Cricopharyngeal_Muscle" />
  <path
     style="opacity:0.996087;fill:none;stroke:#000000;stroke-width:0.2;stroke-linecap:butt;stroke-linejoin:miter;stroke-miterlimit:4;stroke-dasharray:none;stroke-opacity:1"
     d="m 8.0393448,0.77333894 -7.33692003,-0.47281 -1.98528097,-1.38107104 4.57478,-1.81264 4.57355,-0.466304 5.2780722,1.557488 0.894367,2.04473804 -5.9985682,0.530599"
     id="Mylogeniohyoid_M" />
  <path
     id="Mandible"
     style="opacity:0.996087;fill:none;stroke:#000000;stroke-width:0.2;stroke-linecap:butt;stroke-linejoin:miter;stroke-miterlimit:4;stroke-dasharray:none;stroke-opacity:1"
     d="m 20.806432,10.40751 -3.81373,-4.5232401 -0.235109,-2.089793 -2.71968,-3.55173696 -0.894367,-2.04473804 6.952348,-0.780913 2.625672,2.36316204 0.918792,3.93877796 -1.181312,2.363163 1.061429,3.315044 z" />
  <path
     style="opacity:0.996087;fill:none;stroke:#000000;stroke-width:0.2;stroke-linecap:butt;stroke-linejoin:miter;stroke-miterlimit:4;stroke-dasharray:none;stroke-opacity:1"
     d="m -8.8525662,-13.638913 -4.0829998,5.0488529 1.92761,11.119859 2.7503398,-1.499971 4.147402,-0.43441196 -0.280022,-1.589657 -1.4786,-4.55192004 -0.39657,-1.387999 -2.58716,-6.7047529"
     id="IPC" />
  <path
     style="opacity:0.996087;fill:none;stroke:#000000;stroke-width:0.2;stroke-linecap:butt;stroke-linejoin:miter;stroke-miterlimit:4;stroke-dasharray:none;stroke-opacity:1"
     d="m -1.6677652,12.060659 6.244771,-1.83231 0.279039,-4.5484201 -0.0104,-2.662369 -0.345281,-2.50316996 -3.79794803,-0.21386 -3.12585097,1.05340696 -2.144763,7.414922 2.90042,3.2918001"
     id="Masseter_M" />
</svg>
